# xmcd CD database file
#
# Track frame offsets:
#	150
#	10653
#	22522
#	33940
#	47604
#	60516
#	73188
#	86820
#	103086
#	116396
#	135961
#
# Disc length: 1983 seconds
#
# Revision: 0
# Processed by: cddbd v1.5.1PL2 Copyright (c) Steve Scherf et al.
# Submitted via: CDex 1.70beta2
#
DISCID=7c07bd0b
DTITLE=Various Artist - Crooners Lounge: After Midnight
DYEAR=1900
DGENRE=Jazz
TTITLE0=Jeepers Creepers - Chris Connor
TTITLE1=Just One Of Those Things - Louis Prima
TTITLE2=Lover Come Back To Me - Nat "King" Cole
TTITLE3=Moonglow - June Christy
TTITLE4=Baby It's Cold Outside - Johnny Mercer and Margaret Whiting
TTITLE5=Mine - Bing Crosby and Judy Garland
TTITLE6=Golden Earrings - Peggy Lee
TTITLE7=Begin The Beguine - Bing Crosby
TTITLE8=Long Ago (And Far Away) - Joe Stafford
TTITLE9=You'd Be So Nice To Come Home To - Helen Merrill
TTITLE10=At Half Past Seven - Vic Damone
EXTD=
EXTT0=
EXTT1=
EXTT2=
EXTT3=
EXTT4=
EXTT5=
EXTT6=
EXTT7=
EXTT8=
EXTT9=
EXTT10=
PLAYORDER=
